<svg xmlns="http://www.w3.org/2000/svg" viewBox="0 0 1000 348" width="1000" height="348" role="img" aria-label="itens: TypeScript, JavaScript, React / Next.js, HTML e CSS, Tailwind CSS, Node.js, Git e GitHub, Vercel">
<rect width="1000" height="348" fill="#000000"/>
<rect x="3" y="3" width="994" height="342" fill="none" stroke="#ffffff" stroke-width="6"/>
<rect x="122" y="48" width="20" height="4" fill="#ffffff"/><rect x="130" y="52" width="4" height="4" fill="#ffffff"/><rect x="130" y="56" width="4" height="4" fill="#ffffff"/><rect x="130" y="60" width="4" height="4" fill="#ffffff"/><rect x="130" y="64" width="4" height="4" fill="#ffffff"/><rect x="130" y="68" width="4" height="4" fill="#ffffff"/><rect x="130" y="72" width="4" height="4" fill="#ffffff"/><rect x="146" y="56" width="4" height="4" fill="#ffffff"/><rect x="162" y="56" width="4" height="4" fill="#ffffff"/><rect x="146" y="60" width="4" height="4" fill="#ffffff"/><rect x="162" y="60" width="4" height="4" fill="#ffffff"/><rect x="146" y="64" width="4" height="4" fill="#ffffff"/><rect x="162" y="64" width="4" height="4" fill="#ffffff"/><rect x="150" y="68" width="16" height="4" fill="#ffffff"/><rect x="162" y="72" width="4" height="4" fill="#ffffff"/><rect x="150" y="76" width="12" height="4" fill="#ffffff"/><rect x="170" y="56" width="16" height="4" fill="#ffffff"/><rect x="170" y="60" width="4" height="4" fill="#ffffff"/><rect x="186" y="60" width="4" height="4" fill="#ffffff"/><rect x="170" y="64" width="4" height="4" fill="#ffffff"/><rect x="186" y="64" width="4" height="4" fill="#ffffff"/><rect x="170" y="68" width="16" height="4" fill="#ffffff"/><rect x="170" y="72" width="4" height="4" fill="#ffffff"/><rect x="170" y="76" width="4" height="4" fill="#ffffff"/><rect x="198" y="56" width="12" height="4" fill="#ffffff"/><rect x="194" y="60" width="4" height="4" fill="#ffffff"/><rect x="210" y="60" width="4" height="4" fill="#ffffff"/><rect x="194" y="64" width="20" height="4" fill="#ffffff"/><rect x="194" y="68" width="4" height="4" fill="#ffffff"/><rect x="198" y="72" width="12" height="4" fill="#ffffff"/><rect x="222" y="48" width="16" height="4" fill="#ffffff"/><rect x="218" y="52" width="4" height="4" fill="#ffffff"/><rect x="218" y="56" width="4" height="4" fill="#ffffff"/><rect x="222" y="60" width="12" height="4" fill="#ffffff"/><rect x="234" y="64" width="4" height="4" fill="#ffffff"/><rect x="234" y="68" width="4" height="4" fill="#ffffff"/><rect x="218" y="72" width="16" height="4" fill="#ffffff"/><rect x="246" y="56" width="12" height="4" fill="#ffffff"/><rect x="242" y="60" width="4" height="4" fill="#ffffff"/><rect x="242" y="64" width="4" height="4" fill="#ffffff"/><rect x="242" y="68" width="4" height="4" fill="#ffffff"/><rect x="246" y="72" width="12" height="4" fill="#ffffff"/><rect x="266" y="56" width="4" height="4" fill="#ffffff"/><rect x="274" y="56" width="8" height="4" fill="#ffffff"/><rect x="266" y="60" width="8" height="4" fill="#ffffff"/><rect x="282" y="60" width="4" height="4" fill="#ffffff"/><rect x="266" y="64" width="4" height="4" fill="#ffffff"/><rect x="266" y="68" width="4" height="4" fill="#ffffff"/><rect x="266" y="72" width="4" height="4" fill="#ffffff"/><rect x="298" y="48" width="4" height="4" fill="#ffffff"/><rect x="294" y="56" width="8" height="4" fill="#ffffff"/><rect x="298" y="60" width="4" height="4" fill="#ffffff"/><rect x="298" y="64" width="4" height="4" fill="#ffffff"/><rect x="298" y="68" width="4" height="4" fill="#ffffff"/><rect x="294" y="72" width="12" height="4" fill="#ffffff"/><rect x="314" y="56" width="16" height="4" fill="#ffffff"/><rect x="314" y="60" width="4" height="4" fill="#ffffff"/><rect x="330" y="60" width="4" height="4" fill="#ffffff"/><rect x="314" y="64" width="4" height="4" fill="#ffffff"/><rect x="330" y="64" width="4" height="4" fill="#ffffff"/><rect x="314" y="68" width="16" height="4" fill="#ffffff"/><rect x="314" y="72" width="4" height="4" fill="#ffffff"/><rect x="314" y="76" width="4" height="4" fill="#ffffff"/><rect x="342" y="48" width="4" height="4" fill="#ffffff"/><rect x="342" y="52" width="4" height="4" fill="#ffffff"/><rect x="338" y="56" width="16" height="4" fill="#ffffff"/><rect x="342" y="60" width="4" height="4" fill="#ffffff"/><rect x="342" y="64" width="4" height="4" fill="#ffffff"/><rect x="342" y="68" width="4" height="4" fill="#ffffff"/><rect x="354" y="68" width="4" height="4" fill="#ffffff"/><rect x="346" y="72" width="8" height="4" fill="#ffffff"/>
<rect x="592" y="48" width="20" height="4" fill="#ffffff"/><rect x="600" y="52" width="4" height="4" fill="#ffffff"/><rect x="600" y="56" width="4" height="4" fill="#ffffff"/><rect x="600" y="60" width="4" height="4" fill="#ffffff"/><rect x="600" y="64" width="4" height="4" fill="#ffffff"/><rect x="600" y="68" width="4" height="4" fill="#ffffff"/><rect x="600" y="72" width="4" height="4" fill="#ffffff"/><rect x="620" y="56" width="12" height="4" fill="#ffffff"/><rect x="632" y="60" width="4" height="4" fill="#ffffff"/><rect x="620" y="64" width="16" height="4" fill="#ffffff"/><rect x="616" y="68" width="4" height="4" fill="#ffffff"/><rect x="632" y="68" width="4" height="4" fill="#ffffff"/><rect x="620" y="72" width="16" height="4" fill="#ffffff"/><rect x="648" y="48" width="4" height="4" fill="#ffffff"/><rect x="644" y="56" width="8" height="4" fill="#ffffff"/><rect x="648" y="60" width="4" height="4" fill="#ffffff"/><rect x="648" y="64" width="4" height="4" fill="#ffffff"/><rect x="648" y="68" width="4" height="4" fill="#ffffff"/><rect x="644" y="72" width="12" height="4" fill="#ffffff"/><rect x="668" y="48" width="8" height="4" fill="#ffffff"/><rect x="672" y="52" width="4" height="4" fill="#ffffff"/><rect x="672" y="56" width="4" height="4" fill="#ffffff"/><rect x="672" y="60" width="4" height="4" fill="#ffffff"/><rect x="672" y="64" width="4" height="4" fill="#ffffff"/><rect x="672" y="68" width="4" height="4" fill="#ffffff"/><rect x="668" y="72" width="12" height="4" fill="#ffffff"/><rect x="688" y="56" width="4" height="4" fill="#ffffff"/><rect x="704" y="56" width="4" height="4" fill="#ffffff"/><rect x="688" y="60" width="4" height="4" fill="#ffffff"/><rect x="696" y="60" width="4" height="4" fill="#ffffff"/><rect x="704" y="60" width="4" height="4" fill="#ffffff"/><rect x="688" y="64" width="4" height="4" fill="#ffffff"/><rect x="696" y="64" width="4" height="4" fill="#ffffff"/><rect x="704" y="64" width="4" height="4" fill="#ffffff"/><rect x="688" y="68" width="4" height="4" fill="#ffffff"/><rect x="696" y="68" width="4" height="4" fill="#ffffff"/><rect x="704" y="68" width="4" height="4" fill="#ffffff"/><rect x="692" y="72" width="4" height="4" fill="#ffffff"/><rect x="700" y="72" width="4" height="4" fill="#ffffff"/><rect x="720" y="48" width="4" height="4" fill="#ffffff"/><rect x="716" y="56" width="8" height="4" fill="#ffffff"/><rect x="720" y="60" width="4" height="4" fill="#ffffff"/><rect x="720" y="64" width="4" height="4" fill="#ffffff"/><rect x="720" y="68" width="4" height="4" fill="#ffffff"/><rect x="716" y="72" width="12" height="4" fill="#ffffff"/><rect x="736" y="56" width="16" height="4" fill="#ffffff"/><rect x="736" y="60" width="4" height="4" fill="#ffffff"/><rect x="752" y="60" width="4" height="4" fill="#ffffff"/><rect x="736" y="64" width="4" height="4" fill="#ffffff"/><rect x="752" y="64" width="4" height="4" fill="#ffffff"/><rect x="736" y="68" width="4" height="4" fill="#ffffff"/><rect x="752" y="68" width="4" height="4" fill="#ffffff"/><rect x="736" y="72" width="4" height="4" fill="#ffffff"/><rect x="752" y="72" width="4" height="4" fill="#ffffff"/><rect x="776" y="48" width="4" height="4" fill="#ffffff"/><rect x="776" y="52" width="4" height="4" fill="#ffffff"/><rect x="764" y="56" width="16" height="4" fill="#ffffff"/><rect x="760" y="60" width="4" height="4" fill="#ffffff"/><rect x="776" y="60" width="4" height="4" fill="#ffffff"/><rect x="760" y="64" width="4" height="4" fill="#ffffff"/><rect x="776" y="64" width="4" height="4" fill="#ffffff"/><rect x="760" y="68" width="4" height="4" fill="#ffffff"/><rect x="776" y="68" width="4" height="4" fill="#ffffff"/><rect x="764" y="72" width="16" height="4" fill="#ffffff"/><rect x="812" y="48" width="12" height="4" fill="#ffffff"/><rect x="808" y="52" width="4" height="4" fill="#ffffff"/><rect x="824" y="52" width="4" height="4" fill="#ffffff"/><rect x="808" y="56" width="4" height="4" fill="#ffffff"/><rect x="808" y="60" width="4" height="4" fill="#ffffff"/><rect x="808" y="64" width="4" height="4" fill="#ffffff"/><rect x="808" y="68" width="4" height="4" fill="#ffffff"/><rect x="824" y="68" width="4" height="4" fill="#ffffff"/><rect x="812" y="72" width="12" height="4" fill="#ffffff"/><rect x="836" y="48" width="16" height="4" fill="#ffffff"/><rect x="832" y="52" width="4" height="4" fill="#ffffff"/><rect x="832" y="56" width="4" height="4" fill="#ffffff"/><rect x="836" y="60" width="12" height="4" fill="#ffffff"/><rect x="848" y="64" width="4" height="4" fill="#ffffff"/><rect x="848" y="68" width="4" height="4" fill="#ffffff"/><rect x="832" y="72" width="16" height="4" fill="#ffffff"/><rect x="860" y="48" width="16" height="4" fill="#ffffff"/><rect x="856" y="52" width="4" height="4" fill="#ffffff"/><rect x="856" y="56" width="4" height="4" fill="#ffffff"/><rect x="860" y="60" width="12" height="4" fill="#ffffff"/><rect x="872" y="64" width="4" height="4" fill="#ffffff"/><rect x="872" y="68" width="4" height="4" fill="#ffffff"/><rect x="856" y="72" width="16" height="4" fill="#ffffff"/>
<rect x="130" y="104" width="12" height="4" fill="#ffffff"/><rect x="134" y="108" width="4" height="4" fill="#ffffff"/><rect x="134" y="112" width="4" height="4" fill="#ffffff"/><rect x="134" y="116" width="4" height="4" fill="#ffffff"/><rect x="134" y="120" width="4" height="4" fill="#ffffff"/><rect x="122" y="124" width="4" height="4" fill="#ffffff"/><rect x="134" y="124" width="4" height="4" fill="#ffffff"/><rect x="126" y="128" width="8" height="4" fill="#ffffff"/><rect x="150" y="112" width="12" height="4" fill="#ffffff"/><rect x="162" y="116" width="4" height="4" fill="#ffffff"/><rect x="150" y="120" width="16" height="4" fill="#ffffff"/><rect x="146" y="124" width="4" height="4" fill="#ffffff"/><rect x="162" y="124" width="4" height="4" fill="#ffffff"/><rect x="150" y="128" width="16" height="4" fill="#ffffff"/><rect x="170" y="112" width="4" height="4" fill="#ffffff"/><rect x="186" y="112" width="4" height="4" fill="#ffffff"/><rect x="170" y="116" width="4" height="4" fill="#ffffff"/><rect x="186" y="116" width="4" height="4" fill="#ffffff"/><rect x="170" y="120" width="4" height="4" fill="#ffffff"/><rect x="186" y="120" width="4" height="4" fill="#ffffff"/><rect x="174" y="124" width="4" height="4" fill="#ffffff"/><rect x="182" y="124" width="4" height="4" fill="#ffffff"/><rect x="178" y="128" width="4" height="4" fill="#ffffff"/><rect x="198" y="112" width="12" height="4" fill="#ffffff"/><rect x="210" y="116" width="4" height="4" fill="#ffffff"/><rect x="198" y="120" width="16" height="4" fill="#ffffff"/><rect x="194" y="124" width="4" height="4" fill="#ffffff"/><rect x="210" y="124" width="4" height="4" fill="#ffffff"/><rect x="198" y="128" width="16" height="4" fill="#ffffff"/><rect x="222" y="104" width="16" height="4" fill="#ffffff"/><rect x="218" y="108" width="4" height="4" fill="#ffffff"/><rect x="218" y="112" width="4" height="4" fill="#ffffff"/><rect x="222" y="116" width="12" height="4" fill="#ffffff"/><rect x="234" y="120" width="4" height="4" fill="#ffffff"/><rect x="234" y="124" width="4" height="4" fill="#ffffff"/><rect x="218" y="128" width="16" height="4" fill="#ffffff"/><rect x="246" y="112" width="12" height="4" fill="#ffffff"/><rect x="242" y="116" width="4" height="4" fill="#ffffff"/><rect x="242" y="120" width="4" height="4" fill="#ffffff"/><rect x="242" y="124" width="4" height="4" fill="#ffffff"/><rect x="246" y="128" width="12" height="4" fill="#ffffff"/><rect x="266" y="112" width="4" height="4" fill="#ffffff"/><rect x="274" y="112" width="8" height="4" fill="#ffffff"/><rect x="266" y="116" width="8" height="4" fill="#ffffff"/><rect x="282" y="116" width="4" height="4" fill="#ffffff"/><rect x="266" y="120" width="4" height="4" fill="#ffffff"/><rect x="266" y="124" width="4" height="4" fill="#ffffff"/><rect x="266" y="128" width="4" height="4" fill="#ffffff"/><rect x="298" y="104" width="4" height="4" fill="#ffffff"/><rect x="294" y="112" width="8" height="4" fill="#ffffff"/><rect x="298" y="116" width="4" height="4" fill="#ffffff"/><rect x="298" y="120" width="4" height="4" fill="#ffffff"/><rect x="298" y="124" width="4" height="4" fill="#ffffff"/><rect x="294" y="128" width="12" height="4" fill="#ffffff"/><rect x="314" y="112" width="16" height="4" fill="#ffffff"/><rect x="314" y="116" width="4" height="4" fill="#ffffff"/><rect x="330" y="116" width="4" height="4" fill="#ffffff"/><rect x="314" y="120" width="4" height="4" fill="#ffffff"/><rect x="330" y="120" width="4" height="4" fill="#ffffff"/><rect x="314" y="124" width="16" height="4" fill="#ffffff"/><rect x="314" y="128" width="4" height="4" fill="#ffffff"/><rect x="314" y="132" width="4" height="4" fill="#ffffff"/><rect x="342" y="104" width="4" height="4" fill="#ffffff"/><rect x="342" y="108" width="4" height="4" fill="#ffffff"/><rect x="338" y="112" width="16" height="4" fill="#ffffff"/><rect x="342" y="116" width="4" height="4" fill="#ffffff"/><rect x="342" y="120" width="4" height="4" fill="#ffffff"/><rect x="342" y="124" width="4" height="4" fill="#ffffff"/><rect x="354" y="124" width="4" height="4" fill="#ffffff"/><rect x="346" y="128" width="8" height="4" fill="#ffffff"/>
<rect x="592" y="104" width="4" height="4" fill="#ffffff"/><rect x="608" y="104" width="4" height="4" fill="#ffffff"/><rect x="592" y="108" width="8" height="4" fill="#ffffff"/><rect x="608" y="108" width="4" height="4" fill="#ffffff"/><rect x="592" y="112" width="4" height="4" fill="#ffffff"/><rect x="600" y="112" width="4" height="4" fill="#ffffff"/><rect x="608" y="112" width="4" height="4" fill="#ffffff"/><rect x="592" y="116" width="4" height="4" fill="#ffffff"/><rect x="604" y="116" width="8" height="4" fill="#ffffff"/><rect x="592" y="120" width="4" height="4" fill="#ffffff"/><rect x="608" y="120" width="4" height="4" fill="#ffffff"/><rect x="592" y="124" width="4" height="4" fill="#ffffff"/><rect x="608" y="124" width="4" height="4" fill="#ffffff"/><rect x="592" y="128" width="4" height="4" fill="#ffffff"/><rect x="608" y="128" width="4" height="4" fill="#ffffff"/><rect x="620" y="112" width="12" height="4" fill="#ffffff"/><rect x="616" y="116" width="4" height="4" fill="#ffffff"/><rect x="632" y="116" width="4" height="4" fill="#ffffff"/><rect x="616" y="120" width="4" height="4" fill="#ffffff"/><rect x="632" y="120" width="4" height="4" fill="#ffffff"/><rect x="616" y="124" width="4" height="4" fill="#ffffff"/><rect x="632" y="124" width="4" height="4" fill="#ffffff"/><rect x="620" y="128" width="12" height="4" fill="#ffffff"/><rect x="656" y="104" width="4" height="4" fill="#ffffff"/><rect x="656" y="108" width="4" height="4" fill="#ffffff"/><rect x="644" y="112" width="16" height="4" fill="#ffffff"/><rect x="640" y="116" width="4" height="4" fill="#ffffff"/><rect x="656" y="116" width="4" height="4" fill="#ffffff"/><rect x="640" y="120" width="4" height="4" fill="#ffffff"/><rect x="656" y="120" width="4" height="4" fill="#ffffff"/><rect x="640" y="124" width="4" height="4" fill="#ffffff"/><rect x="656" y="124" width="4" height="4" fill="#ffffff"/><rect x="644" y="128" width="16" height="4" fill="#ffffff"/><rect x="668" y="112" width="12" height="4" fill="#ffffff"/><rect x="664" y="116" width="4" height="4" fill="#ffffff"/><rect x="680" y="116" width="4" height="4" fill="#ffffff"/><rect x="664" y="120" width="20" height="4" fill="#ffffff"/><rect x="664" y="124" width="4" height="4" fill="#ffffff"/><rect x="668" y="128" width="12" height="4" fill="#ffffff"/><rect x="692" y="124" width="8" height="4" fill="#ffffff"/><rect x="692" y="128" width="8" height="4" fill="#ffffff"/><rect x="724" y="104" width="4" height="4" fill="#ffffff"/><rect x="720" y="112" width="8" height="4" fill="#ffffff"/><rect x="724" y="116" width="4" height="4" fill="#ffffff"/><rect x="724" y="120" width="4" height="4" fill="#ffffff"/><rect x="724" y="124" width="4" height="4" fill="#ffffff"/><rect x="712" y="128" width="4" height="4" fill="#ffffff"/><rect x="724" y="128" width="4" height="4" fill="#ffffff"/><rect x="716" y="132" width="8" height="4" fill="#ffffff"/><rect x="740" y="112" width="16" height="4" fill="#ffffff"/><rect x="736" y="116" width="4" height="4" fill="#ffffff"/><rect x="740" y="120" width="12" height="4" fill="#ffffff"/><rect x="752" y="124" width="4" height="4" fill="#ffffff"/><rect x="736" y="128" width="16" height="4" fill="#ffffff"/>
<rect x="122" y="160" width="16" height="4" fill="#ffffff"/><rect x="122" y="164" width="4" height="4" fill="#ffffff"/><rect x="138" y="164" width="4" height="4" fill="#ffffff"/><rect x="122" y="168" width="4" height="4" fill="#ffffff"/><rect x="138" y="168" width="4" height="4" fill="#ffffff"/><rect x="122" y="172" width="16" height="4" fill="#ffffff"/><rect x="122" y="176" width="4" height="4" fill="#ffffff"/><rect x="130" y="176" width="4" height="4" fill="#ffffff"/><rect x="122" y="180" width="4" height="4" fill="#ffffff"/><rect x="134" y="180" width="4" height="4" fill="#ffffff"/><rect x="122" y="184" width="4" height="4" fill="#ffffff"/><rect x="138" y="184" width="4" height="4" fill="#ffffff"/><rect x="150" y="168" width="12" height="4" fill="#ffffff"/><rect x="146" y="172" width="4" height="4" fill="#ffffff"/><rect x="162" y="172" width="4" height="4" fill="#ffffff"/><rect x="146" y="176" width="20" height="4" fill="#ffffff"/><rect x="146" y="180" width="4" height="4" fill="#ffffff"/><rect x="150" y="184" width="12" height="4" fill="#ffffff"/><rect x="174" y="168" width="12" height="4" fill="#ffffff"/><rect x="186" y="172" width="4" height="4" fill="#ffffff"/><rect x="174" y="176" width="16" height="4" fill="#ffffff"/><rect x="170" y="180" width="4" height="4" fill="#ffffff"/><rect x="186" y="180" width="4" height="4" fill="#ffffff"/><rect x="174" y="184" width="16" height="4" fill="#ffffff"/><rect x="198" y="168" width="12" height="4" fill="#ffffff"/><rect x="194" y="172" width="4" height="4" fill="#ffffff"/><rect x="194" y="176" width="4" height="4" fill="#ffffff"/><rect x="194" y="180" width="4" height="4" fill="#ffffff"/><rect x="198" y="184" width="12" height="4" fill="#ffffff"/><rect x="222" y="160" width="4" height="4" fill="#ffffff"/><rect x="222" y="164" width="4" height="4" fill="#ffffff"/><rect x="218" y="168" width="16" height="4" fill="#ffffff"/><rect x="222" y="172" width="4" height="4" fill="#ffffff"/><rect x="222" y="176" width="4" height="4" fill="#ffffff"/><rect x="222" y="180" width="4" height="4" fill="#ffffff"/><rect x="234" y="180" width="4" height="4" fill="#ffffff"/><rect x="226" y="184" width="8" height="4" fill="#ffffff"/><rect x="282" y="160" width="4" height="4" fill="#ffffff"/><rect x="282" y="164" width="4" height="4" fill="#ffffff"/><rect x="278" y="168" width="4" height="4" fill="#ffffff"/><rect x="274" y="172" width="4" height="4" fill="#ffffff"/><rect x="270" y="176" width="4" height="4" fill="#ffffff"/><rect x="266" y="180" width="4" height="4" fill="#ffffff"/><rect x="266" y="184" width="4" height="4" fill="#ffffff"/><rect x="314" y="160" width="4" height="4" fill="#ffffff"/><rect x="330" y="160" width="4" height="4" fill="#ffffff"/><rect x="314" y="164" width="8" height="4" fill="#ffffff"/><rect x="330" y="164" width="4" height="4" fill="#ffffff"/><rect x="314" y="168" width="4" height="4" fill="#ffffff"/><rect x="322" y="168" width="4" height="4" fill="#ffffff"/><rect x="330" y="168" width="4" height="4" fill="#ffffff"/><rect x="314" y="172" width="4" height="4" fill="#ffffff"/><rect x="326" y="172" width="8" height="4" fill="#ffffff"/><rect x="314" y="176" width="4" height="4" fill="#ffffff"/><rect x="330" y="176" width="4" height="4" fill="#ffffff"/><rect x="314" y="180" width="4" height="4" fill="#ffffff"/><rect x="330" y="180" width="4" height="4" fill="#ffffff"/><rect x="314" y="184" width="4" height="4" fill="#ffffff"/><rect x="330" y="184" width="4" height="4" fill="#ffffff"/><rect x="342" y="168" width="12" height="4" fill="#ffffff"/><rect x="338" y="172" width="4" height="4" fill="#ffffff"/><rect x="354" y="172" width="4" height="4" fill="#ffffff"/><rect x="338" y="176" width="20" height="4" fill="#ffffff"/><rect x="338" y="180" width="4" height="4" fill="#ffffff"/><rect x="342" y="184" width="12" height="4" fill="#ffffff"/><rect x="362" y="168" width="4" height="4" fill="#ffffff"/><rect x="378" y="168" width="4" height="4" fill="#ffffff"/><rect x="366" y="172" width="4" height="4" fill="#ffffff"/><rect x="374" y="172" width="4" height="4" fill="#ffffff"/><rect x="370" y="176" width="4" height="4" fill="#ffffff"/><rect x="366" y="180" width="4" height="4" fill="#ffffff"/><rect x="374" y="180" width="4" height="4" fill="#ffffff"/><rect x="362" y="184" width="4" height="4" fill="#ffffff"/><rect x="378" y="184" width="4" height="4" fill="#ffffff"/><rect x="390" y="160" width="4" height="4" fill="#ffffff"/><rect x="390" y="164" width="4" height="4" fill="#ffffff"/><rect x="386" y="168" width="16" height="4" fill="#ffffff"/><rect x="390" y="172" width="4" height="4" fill="#ffffff"/><rect x="390" y="176" width="4" height="4" fill="#ffffff"/><rect x="390" y="180" width="4" height="4" fill="#ffffff"/><rect x="402" y="180" width="4" height="4" fill="#ffffff"/><rect x="394" y="184" width="8" height="4" fill="#ffffff"/><rect x="414" y="180" width="8" height="4" fill="#ffffff"/><rect x="414" y="184" width="8" height="4" fill="#ffffff"/><rect x="446" y="160" width="4" height="4" fill="#ffffff"/><rect x="442" y="168" width="8" height="4" fill="#ffffff"/><rect x="446" y="172" width="4" height="4" fill="#ffffff"/><rect x="446" y="176" width="4" height="4" fill="#ffffff"/><rect x="446" y="180" width="4" height="4" fill="#ffffff"/><rect x="434" y="184" width="4" height="4" fill="#ffffff"/><rect x="446" y="184" width="4" height="4" fill="#ffffff"/><rect x="438" y="188" width="8" height="4" fill="#ffffff"/><rect x="462" y="168" width="16" height="4" fill="#ffffff"/><rect x="458" y="172" width="4" height="4" fill="#ffffff"/><rect x="462" y="176" width="12" height="4" fill="#ffffff"/><rect x="474" y="180" width="4" height="4" fill="#ffffff"/><rect x="458" y="184" width="16" height="4" fill="#ffffff"/>
<rect x="596" y="160" width="12" height="4" fill="#ffffff"/><rect x="592" y="164" width="4" height="4" fill="#ffffff"/><rect x="608" y="164" width="4" height="4" fill="#ffffff"/><rect x="592" y="168" width="4" height="4" fill="#ffffff"/><rect x="592" y="172" width="4" height="4" fill="#ffffff"/><rect x="600" y="172" width="12" height="4" fill="#ffffff"/><rect x="592" y="176" width="4" height="4" fill="#ffffff"/><rect x="608" y="176" width="4" height="4" fill="#ffffff"/><rect x="592" y="180" width="4" height="4" fill="#ffffff"/><rect x="608" y="180" width="4" height="4" fill="#ffffff"/><rect x="596" y="184" width="12" height="4" fill="#ffffff"/><rect x="624" y="160" width="4" height="4" fill="#ffffff"/><rect x="620" y="168" width="8" height="4" fill="#ffffff"/><rect x="624" y="172" width="4" height="4" fill="#ffffff"/><rect x="624" y="176" width="4" height="4" fill="#ffffff"/><rect x="624" y="180" width="4" height="4" fill="#ffffff"/><rect x="620" y="184" width="12" height="4" fill="#ffffff"/><rect x="644" y="160" width="4" height="4" fill="#ffffff"/><rect x="644" y="164" width="4" height="4" fill="#ffffff"/><rect x="640" y="168" width="16" height="4" fill="#ffffff"/><rect x="644" y="172" width="4" height="4" fill="#ffffff"/><rect x="644" y="176" width="4" height="4" fill="#ffffff"/><rect x="644" y="180" width="4" height="4" fill="#ffffff"/><rect x="656" y="180" width="4" height="4" fill="#ffffff"/><rect x="648" y="184" width="8" height="4" fill="#ffffff"/><rect x="692" y="160" width="8" height="4" fill="#ffffff"/><rect x="688" y="164" width="4" height="4" fill="#ffffff"/><rect x="700" y="164" width="4" height="4" fill="#ffffff"/><rect x="688" y="168" width="4" height="4" fill="#ffffff"/><rect x="700" y="168" width="4" height="4" fill="#ffffff"/><rect x="692" y="172" width="8" height="4" fill="#ffffff"/><rect x="688" y="176" width="4" height="4" fill="#ffffff"/><rect x="696" y="176" width="4" height="4" fill="#ffffff"/><rect x="704" y="176" width="4" height="4" fill="#ffffff"/><rect x="688" y="180" width="4" height="4" fill="#ffffff"/><rect x="700" y="180" width="4" height="4" fill="#ffffff"/><rect x="692" y="184" width="8" height="4" fill="#ffffff"/><rect x="704" y="184" width="4" height="4" fill="#ffffff"/><rect x="740" y="160" width="12" height="4" fill="#ffffff"/><rect x="736" y="164" width="4" height="4" fill="#ffffff"/><rect x="752" y="164" width="4" height="4" fill="#ffffff"/><rect x="736" y="168" width="4" height="4" fill="#ffffff"/><rect x="736" y="172" width="4" height="4" fill="#ffffff"/><rect x="744" y="172" width="12" height="4" fill="#ffffff"/><rect x="736" y="176" width="4" height="4" fill="#ffffff"/><rect x="752" y="176" width="4" height="4" fill="#ffffff"/><rect x="736" y="180" width="4" height="4" fill="#ffffff"/><rect x="752" y="180" width="4" height="4" fill="#ffffff"/><rect x="740" y="184" width="12" height="4" fill="#ffffff"/><rect x="768" y="160" width="4" height="4" fill="#ffffff"/><rect x="764" y="168" width="8" height="4" fill="#ffffff"/><rect x="768" y="172" width="4" height="4" fill="#ffffff"/><rect x="768" y="176" width="4" height="4" fill="#ffffff"/><rect x="768" y="180" width="4" height="4" fill="#ffffff"/><rect x="764" y="184" width="12" height="4" fill="#ffffff"/><rect x="788" y="160" width="4" height="4" fill="#ffffff"/><rect x="788" y="164" width="4" height="4" fill="#ffffff"/><rect x="784" y="168" width="16" height="4" fill="#ffffff"/><rect x="788" y="172" width="4" height="4" fill="#ffffff"/><rect x="788" y="176" width="4" height="4" fill="#ffffff"/><rect x="788" y="180" width="4" height="4" fill="#ffffff"/><rect x="800" y="180" width="4" height="4" fill="#ffffff"/><rect x="792" y="184" width="8" height="4" fill="#ffffff"/><rect x="808" y="160" width="4" height="4" fill="#ffffff"/><rect x="824" y="160" width="4" height="4" fill="#ffffff"/><rect x="808" y="164" width="4" height="4" fill="#ffffff"/><rect x="824" y="164" width="4" height="4" fill="#ffffff"/><rect x="808" y="168" width="4" height="4" fill="#ffffff"/><rect x="824" y="168" width="4" height="4" fill="#ffffff"/><rect x="808" y="172" width="20" height="4" fill="#ffffff"/><rect x="808" y="176" width="4" height="4" fill="#ffffff"/><rect x="824" y="176" width="4" height="4" fill="#ffffff"/><rect x="808" y="180" width="4" height="4" fill="#ffffff"/><rect x="824" y="180" width="4" height="4" fill="#ffffff"/><rect x="808" y="184" width="4" height="4" fill="#ffffff"/><rect x="824" y="184" width="4" height="4" fill="#ffffff"/><rect x="832" y="168" width="4" height="4" fill="#ffffff"/><rect x="848" y="168" width="4" height="4" fill="#ffffff"/><rect x="832" y="172" width="4" height="4" fill="#ffffff"/><rect x="848" y="172" width="4" height="4" fill="#ffffff"/><rect x="832" y="176" width="4" height="4" fill="#ffffff"/><rect x="848" y="176" width="4" height="4" fill="#ffffff"/><rect x="832" y="180" width="4" height="4" fill="#ffffff"/><rect x="844" y="180" width="8" height="4" fill="#ffffff"/><rect x="836" y="184" width="8" height="4" fill="#ffffff"/><rect x="848" y="184" width="4" height="4" fill="#ffffff"/><rect x="856" y="160" width="4" height="4" fill="#ffffff"/><rect x="856" y="164" width="4" height="4" fill="#ffffff"/><rect x="856" y="168" width="16" height="4" fill="#ffffff"/><rect x="856" y="172" width="4" height="4" fill="#ffffff"/><rect x="872" y="172" width="4" height="4" fill="#ffffff"/><rect x="856" y="176" width="4" height="4" fill="#ffffff"/><rect x="872" y="176" width="4" height="4" fill="#ffffff"/><rect x="856" y="180" width="4" height="4" fill="#ffffff"/><rect x="872" y="180" width="4" height="4" fill="#ffffff"/><rect x="856" y="184" width="16" height="4" fill="#ffffff"/>
<rect x="122" y="216" width="4" height="4" fill="#ffffff"/><rect x="138" y="216" width="4" height="4" fill="#ffffff"/><rect x="122" y="220" width="4" height="4" fill="#ffffff"/><rect x="138" y="220" width="4" height="4" fill="#ffffff"/><rect x="122" y="224" width="4" height="4" fill="#ffffff"/><rect x="138" y="224" width="4" height="4" fill="#ffffff"/><rect x="122" y="228" width="20" height="4" fill="#ffffff"/><rect x="122" y="232" width="4" height="4" fill="#ffffff"/><rect x="138" y="232" width="4" height="4" fill="#ffffff"/><rect x="122" y="236" width="4" height="4" fill="#ffffff"/><rect x="138" y="236" width="4" height="4" fill="#ffffff"/><rect x="122" y="240" width="4" height="4" fill="#ffffff"/><rect x="138" y="240" width="4" height="4" fill="#ffffff"/><rect x="146" y="216" width="20" height="4" fill="#ffffff"/><rect x="154" y="220" width="4" height="4" fill="#ffffff"/><rect x="154" y="224" width="4" height="4" fill="#ffffff"/><rect x="154" y="228" width="4" height="4" fill="#ffffff"/><rect x="154" y="232" width="4" height="4" fill="#ffffff"/><rect x="154" y="236" width="4" height="4" fill="#ffffff"/><rect x="154" y="240" width="4" height="4" fill="#ffffff"/><rect x="170" y="216" width="4" height="4" fill="#ffffff"/><rect x="186" y="216" width="4" height="4" fill="#ffffff"/><rect x="170" y="220" width="8" height="4" fill="#ffffff"/><rect x="182" y="220" width="8" height="4" fill="#ffffff"/><rect x="170" y="224" width="4" height="4" fill="#ffffff"/><rect x="178" y="224" width="4" height="4" fill="#ffffff"/><rect x="186" y="224" width="4" height="4" fill="#ffffff"/><rect x="170" y="228" width="4" height="4" fill="#ffffff"/><rect x="178" y="228" width="4" height="4" fill="#ffffff"/><rect x="186" y="228" width="4" height="4" fill="#ffffff"/><rect x="170" y="232" width="4" height="4" fill="#ffffff"/><rect x="186" y="232" width="4" height="4" fill="#ffffff"/><rect x="170" y="236" width="4" height="4" fill="#ffffff"/><rect x="186" y="236" width="4" height="4" fill="#ffffff"/><rect x="170" y="240" width="4" height="4" fill="#ffffff"/><rect x="186" y="240" width="4" height="4" fill="#ffffff"/><rect x="194" y="216" width="4" height="4" fill="#ffffff"/><rect x="194" y="220" width="4" height="4" fill="#ffffff"/><rect x="194" y="224" width="4" height="4" fill="#ffffff"/><rect x="194" y="228" width="4" height="4" fill="#ffffff"/><rect x="194" y="232" width="4" height="4" fill="#ffffff"/><rect x="194" y="236" width="4" height="4" fill="#ffffff"/><rect x="194" y="240" width="20" height="4" fill="#ffffff"/><rect x="246" y="216" width="8" height="4" fill="#ffffff"/><rect x="242" y="220" width="4" height="4" fill="#ffffff"/><rect x="254" y="220" width="4" height="4" fill="#ffffff"/><rect x="242" y="224" width="4" height="4" fill="#ffffff"/><rect x="254" y="224" width="4" height="4" fill="#ffffff"/><rect x="246" y="228" width="8" height="4" fill="#ffffff"/><rect x="242" y="232" width="4" height="4" fill="#ffffff"/><rect x="250" y="232" width="4" height="4" fill="#ffffff"/><rect x="258" y="232" width="4" height="4" fill="#ffffff"/><rect x="242" y="236" width="4" height="4" fill="#ffffff"/><rect x="254" y="236" width="4" height="4" fill="#ffffff"/><rect x="246" y="240" width="8" height="4" fill="#ffffff"/><rect x="258" y="240" width="4" height="4" fill="#ffffff"/><rect x="294" y="216" width="12" height="4" fill="#ffffff"/><rect x="290" y="220" width="4" height="4" fill="#ffffff"/><rect x="306" y="220" width="4" height="4" fill="#ffffff"/><rect x="290" y="224" width="4" height="4" fill="#ffffff"/><rect x="290" y="228" width="4" height="4" fill="#ffffff"/><rect x="290" y="232" width="4" height="4" fill="#ffffff"/><rect x="290" y="236" width="4" height="4" fill="#ffffff"/><rect x="306" y="236" width="4" height="4" fill="#ffffff"/><rect x="294" y="240" width="12" height="4" fill="#ffffff"/><rect x="318" y="216" width="16" height="4" fill="#ffffff"/><rect x="314" y="220" width="4" height="4" fill="#ffffff"/><rect x="314" y="224" width="4" height="4" fill="#ffffff"/><rect x="318" y="228" width="12" height="4" fill="#ffffff"/><rect x="330" y="232" width="4" height="4" fill="#ffffff"/><rect x="330" y="236" width="4" height="4" fill="#ffffff"/><rect x="314" y="240" width="16" height="4" fill="#ffffff"/><rect x="342" y="216" width="16" height="4" fill="#ffffff"/><rect x="338" y="220" width="4" height="4" fill="#ffffff"/><rect x="338" y="224" width="4" height="4" fill="#ffffff"/><rect x="342" y="228" width="12" height="4" fill="#ffffff"/><rect x="354" y="232" width="4" height="4" fill="#ffffff"/><rect x="354" y="236" width="4" height="4" fill="#ffffff"/><rect x="338" y="240" width="16" height="4" fill="#ffffff"/>
<rect x="592" y="216" width="4" height="4" fill="#ffffff"/><rect x="608" y="216" width="4" height="4" fill="#ffffff"/><rect x="592" y="220" width="4" height="4" fill="#ffffff"/><rect x="608" y="220" width="4" height="4" fill="#ffffff"/><rect x="592" y="224" width="4" height="4" fill="#ffffff"/><rect x="608" y="224" width="4" height="4" fill="#ffffff"/><rect x="592" y="228" width="4" height="4" fill="#ffffff"/><rect x="608" y="228" width="4" height="4" fill="#ffffff"/><rect x="592" y="232" width="4" height="4" fill="#ffffff"/><rect x="608" y="232" width="4" height="4" fill="#ffffff"/><rect x="596" y="236" width="4" height="4" fill="#ffffff"/><rect x="604" y="236" width="4" height="4" fill="#ffffff"/><rect x="600" y="240" width="4" height="4" fill="#ffffff"/><rect x="620" y="224" width="12" height="4" fill="#ffffff"/><rect x="616" y="228" width="4" height="4" fill="#ffffff"/><rect x="632" y="228" width="4" height="4" fill="#ffffff"/><rect x="616" y="232" width="20" height="4" fill="#ffffff"/><rect x="616" y="236" width="4" height="4" fill="#ffffff"/><rect x="620" y="240" width="12" height="4" fill="#ffffff"/><rect x="640" y="224" width="4" height="4" fill="#ffffff"/><rect x="648" y="224" width="8" height="4" fill="#ffffff"/><rect x="640" y="228" width="8" height="4" fill="#ffffff"/><rect x="656" y="228" width="4" height="4" fill="#ffffff"/><rect x="640" y="232" width="4" height="4" fill="#ffffff"/><rect x="640" y="236" width="4" height="4" fill="#ffffff"/><rect x="640" y="240" width="4" height="4" fill="#ffffff"/><rect x="668" y="224" width="12" height="4" fill="#ffffff"/><rect x="664" y="228" width="4" height="4" fill="#ffffff"/><rect x="664" y="232" width="4" height="4" fill="#ffffff"/><rect x="664" y="236" width="4" height="4" fill="#ffffff"/><rect x="668" y="240" width="12" height="4" fill="#ffffff"/><rect x="692" y="224" width="12" height="4" fill="#ffffff"/><rect x="688" y="228" width="4" height="4" fill="#ffffff"/><rect x="704" y="228" width="4" height="4" fill="#ffffff"/><rect x="688" y="232" width="20" height="4" fill="#ffffff"/><rect x="688" y="236" width="4" height="4" fill="#ffffff"/><rect x="692" y="240" width="12" height="4" fill="#ffffff"/><rect x="716" y="216" width="8" height="4" fill="#ffffff"/><rect x="720" y="220" width="4" height="4" fill="#ffffff"/><rect x="720" y="224" width="4" height="4" fill="#ffffff"/><rect x="720" y="228" width="4" height="4" fill="#ffffff"/><rect x="720" y="232" width="4" height="4" fill="#ffffff"/><rect x="720" y="236" width="4" height="4" fill="#ffffff"/><rect x="716" y="240" width="12" height="4" fill="#ffffff"/>
<g transform="translate(40,52)"><g><rect x="4" y="0" width="4" height="4" fill="#ff0000"/><rect x="8" y="0" width="4" height="4" fill="#ff0000"/><rect x="20" y="0" width="4" height="4" fill="#ff0000"/><rect x="24" y="0" width="4" height="4" fill="#ff0000"/><rect x="0" y="4" width="4" height="4" fill="#ff0000"/><rect x="4" y="4" width="4" height="4" fill="#ff0000"/><rect x="8" y="4" width="4" height="4" fill="#ff0000"/><rect x="12" y="4" width="4" height="4" fill="#ff0000"/><rect x="16" y="4" width="4" height="4" fill="#ff0000"/><rect x="20" y="4" width="4" height="4" fill="#ff0000"/><rect x="24" y="4" width="4" height="4" fill="#ff0000"/><rect x="28" y="4" width="4" height="4" fill="#ff0000"/><rect x="0" y="8" width="4" height="4" fill="#ff0000"/><rect x="4" y="8" width="4" height="4" fill="#ff0000"/><rect x="8" y="8" width="4" height="4" fill="#ff0000"/><rect x="12" y="8" width="4" height="4" fill="#ff0000"/><rect x="16" y="8" width="4" height="4" fill="#ff0000"/><rect x="20" y="8" width="4" height="4" fill="#ff0000"/><rect x="24" y="8" width="4" height="4" fill="#ff0000"/><rect x="28" y="8" width="4" height="4" fill="#ff0000"/><rect x="0" y="12" width="4" height="4" fill="#ff0000"/><rect x="4" y="12" width="4" height="4" fill="#ff0000"/><rect x="8" y="12" width="4" height="4" fill="#ff0000"/><rect x="12" y="12" width="4" height="4" fill="#ff0000"/><rect x="16" y="12" width="4" height="4" fill="#ff0000"/><rect x="20" y="12" width="4" height="4" fill="#ff0000"/><rect x="24" y="12" width="4" height="4" fill="#ff0000"/><rect x="28" y="12" width="4" height="4" fill="#ff0000"/><rect x="4" y="16" width="4" height="4" fill="#ff0000"/><rect x="8" y="16" width="4" height="4" fill="#ff0000"/><rect x="12" y="16" width="4" height="4" fill="#ff0000"/><rect x="16" y="16" width="4" height="4" fill="#ff0000"/><rect x="20" y="16" width="4" height="4" fill="#ff0000"/><rect x="24" y="16" width="4" height="4" fill="#ff0000"/><rect x="8" y="20" width="4" height="4" fill="#ff0000"/><rect x="12" y="20" width="4" height="4" fill="#ff0000"/><rect x="16" y="20" width="4" height="4" fill="#ff0000"/><rect x="20" y="20" width="4" height="4" fill="#ff0000"/><rect x="12" y="24" width="4" height="4" fill="#ff0000"/><rect x="16" y="24" width="4" height="4" fill="#ff0000"/><animateTransform attributeName="transform" type="translate" values="0,0; 470,0; 0,56; 470,56; 0,112; 470,112; 0,168; 470,168" dur="8s" calcMode="discrete" repeatCount="indefinite"/></g></g>
<line x1="64" y1="270" x2="936" y2="270" stroke="#ffffff" stroke-width="2" opacity=".3"/>
<rect x="120" y="290" width="3" height="3" fill="#ff9a00"/><rect x="132" y="290" width="3" height="3" fill="#ff9a00"/><rect x="120" y="293" width="3" height="3" fill="#ff9a00"/><rect x="132" y="293" width="3" height="3" fill="#ff9a00"/><rect x="120" y="296" width="3" height="3" fill="#ff9a00"/><rect x="132" y="296" width="3" height="3" fill="#ff9a00"/><rect x="120" y="299" width="3" height="3" fill="#ff9a00"/><rect x="132" y="299" width="3" height="3" fill="#ff9a00"/><rect x="120" y="302" width="3" height="3" fill="#ff9a00"/><rect x="132" y="302" width="3" height="3" fill="#ff9a00"/><rect x="120" y="305" width="3" height="3" fill="#ff9a00"/><rect x="132" y="305" width="3" height="3" fill="#ff9a00"/><rect x="123" y="308" width="9" height="3" fill="#ff9a00"/><rect x="141" y="290" width="12" height="3" fill="#ff9a00"/><rect x="138" y="293" width="3" height="3" fill="#ff9a00"/><rect x="138" y="296" width="3" height="3" fill="#ff9a00"/><rect x="141" y="299" width="9" height="3" fill="#ff9a00"/><rect x="150" y="302" width="3" height="3" fill="#ff9a00"/><rect x="150" y="305" width="3" height="3" fill="#ff9a00"/><rect x="138" y="308" width="12" height="3" fill="#ff9a00"/><rect x="159" y="290" width="9" height="3" fill="#ff9a00"/><rect x="156" y="293" width="3" height="3" fill="#ff9a00"/><rect x="168" y="293" width="3" height="3" fill="#ff9a00"/><rect x="156" y="296" width="3" height="3" fill="#ff9a00"/><rect x="168" y="296" width="3" height="3" fill="#ff9a00"/><rect x="156" y="299" width="15" height="3" fill="#ff9a00"/><rect x="156" y="302" width="3" height="3" fill="#ff9a00"/><rect x="168" y="302" width="3" height="3" fill="#ff9a00"/><rect x="156" y="305" width="3" height="3" fill="#ff9a00"/><rect x="168" y="305" width="3" height="3" fill="#ff9a00"/><rect x="156" y="308" width="3" height="3" fill="#ff9a00"/><rect x="168" y="308" width="3" height="3" fill="#ff9a00"/><rect x="174" y="290" width="12" height="3" fill="#ff9a00"/><rect x="174" y="293" width="3" height="3" fill="#ff9a00"/><rect x="186" y="293" width="3" height="3" fill="#ff9a00"/><rect x="174" y="296" width="3" height="3" fill="#ff9a00"/><rect x="186" y="296" width="3" height="3" fill="#ff9a00"/><rect x="174" y="299" width="12" height="3" fill="#ff9a00"/><rect x="174" y="302" width="3" height="3" fill="#ff9a00"/><rect x="180" y="302" width="3" height="3" fill="#ff9a00"/><rect x="174" y="305" width="3" height="3" fill="#ff9a00"/><rect x="183" y="305" width="3" height="3" fill="#ff9a00"/><rect x="174" y="308" width="3" height="3" fill="#ff9a00"/><rect x="186" y="308" width="3" height="3" fill="#ff9a00"/>
<rect x="420" y="290" width="15" height="3" fill="#ff9a00"/><rect x="426" y="293" width="3" height="3" fill="#ff9a00"/><rect x="426" y="296" width="3" height="3" fill="#ff9a00"/><rect x="426" y="299" width="3" height="3" fill="#ff9a00"/><rect x="426" y="302" width="3" height="3" fill="#ff9a00"/><rect x="426" y="305" width="3" height="3" fill="#ff9a00"/><rect x="420" y="308" width="15" height="3" fill="#ff9a00"/><rect x="438" y="290" width="3" height="3" fill="#ff9a00"/><rect x="450" y="290" width="3" height="3" fill="#ff9a00"/><rect x="438" y="293" width="6" height="3" fill="#ff9a00"/><rect x="450" y="293" width="3" height="3" fill="#ff9a00"/><rect x="438" y="296" width="3" height="3" fill="#ff9a00"/><rect x="444" y="296" width="3" height="3" fill="#ff9a00"/><rect x="450" y="296" width="3" height="3" fill="#ff9a00"/><rect x="438" y="299" width="3" height="3" fill="#ff9a00"/><rect x="447" y="299" width="6" height="3" fill="#ff9a00"/><rect x="438" y="302" width="3" height="3" fill="#ff9a00"/><rect x="450" y="302" width="3" height="3" fill="#ff9a00"/><rect x="438" y="305" width="3" height="3" fill="#ff9a00"/><rect x="450" y="305" width="3" height="3" fill="#ff9a00"/><rect x="438" y="308" width="3" height="3" fill="#ff9a00"/><rect x="450" y="308" width="3" height="3" fill="#ff9a00"/><rect x="456" y="290" width="15" height="3" fill="#ff9a00"/><rect x="456" y="293" width="3" height="3" fill="#ff9a00"/><rect x="456" y="296" width="3" height="3" fill="#ff9a00"/><rect x="456" y="299" width="12" height="3" fill="#ff9a00"/><rect x="456" y="302" width="3" height="3" fill="#ff9a00"/><rect x="456" y="305" width="3" height="3" fill="#ff9a00"/><rect x="456" y="308" width="3" height="3" fill="#ff9a00"/><rect x="477" y="290" width="9" height="3" fill="#ff9a00"/><rect x="474" y="293" width="3" height="3" fill="#ff9a00"/><rect x="486" y="293" width="3" height="3" fill="#ff9a00"/><rect x="474" y="296" width="3" height="3" fill="#ff9a00"/><rect x="486" y="296" width="3" height="3" fill="#ff9a00"/><rect x="474" y="299" width="3" height="3" fill="#ff9a00"/><rect x="486" y="299" width="3" height="3" fill="#ff9a00"/><rect x="474" y="302" width="3" height="3" fill="#ff9a00"/><rect x="486" y="302" width="3" height="3" fill="#ff9a00"/><rect x="474" y="305" width="3" height="3" fill="#ff9a00"/><rect x="486" y="305" width="3" height="3" fill="#ff9a00"/><rect x="477" y="308" width="9" height="3" fill="#ff9a00"/>
<rect x="720" y="290" width="3" height="3" fill="#ff9a00"/><rect x="720" y="293" width="3" height="3" fill="#ff9a00"/><rect x="720" y="296" width="3" height="3" fill="#ff9a00"/><rect x="720" y="299" width="3" height="3" fill="#ff9a00"/><rect x="720" y="302" width="3" height="3" fill="#ff9a00"/><rect x="720" y="305" width="3" height="3" fill="#ff9a00"/><rect x="720" y="308" width="15" height="3" fill="#ff9a00"/><rect x="741" y="290" width="9" height="3" fill="#ff9a00"/><rect x="738" y="293" width="3" height="3" fill="#ff9a00"/><rect x="750" y="293" width="3" height="3" fill="#ff9a00"/><rect x="738" y="296" width="3" height="3" fill="#ff9a00"/><rect x="750" y="296" width="3" height="3" fill="#ff9a00"/><rect x="738" y="299" width="15" height="3" fill="#ff9a00"/><rect x="738" y="302" width="3" height="3" fill="#ff9a00"/><rect x="750" y="302" width="3" height="3" fill="#ff9a00"/><rect x="738" y="305" width="3" height="3" fill="#ff9a00"/><rect x="750" y="305" width="3" height="3" fill="#ff9a00"/><rect x="738" y="308" width="3" height="3" fill="#ff9a00"/><rect x="750" y="308" width="3" height="3" fill="#ff9a00"/><rect x="756" y="290" width="12" height="3" fill="#ff9a00"/><rect x="756" y="293" width="3" height="3" fill="#ff9a00"/><rect x="768" y="293" width="3" height="3" fill="#ff9a00"/><rect x="756" y="296" width="3" height="3" fill="#ff9a00"/><rect x="768" y="296" width="3" height="3" fill="#ff9a00"/><rect x="756" y="299" width="12" height="3" fill="#ff9a00"/><rect x="756" y="302" width="3" height="3" fill="#ff9a00"/><rect x="762" y="302" width="3" height="3" fill="#ff9a00"/><rect x="756" y="305" width="3" height="3" fill="#ff9a00"/><rect x="765" y="305" width="3" height="3" fill="#ff9a00"/><rect x="756" y="308" width="3" height="3" fill="#ff9a00"/><rect x="768" y="308" width="3" height="3" fill="#ff9a00"/><rect x="777" y="290" width="9" height="3" fill="#ff9a00"/><rect x="774" y="293" width="3" height="3" fill="#ff9a00"/><rect x="786" y="293" width="3" height="3" fill="#ff9a00"/><rect x="774" y="296" width="3" height="3" fill="#ff9a00"/><rect x="774" y="299" width="3" height="3" fill="#ff9a00"/><rect x="780" y="299" width="9" height="3" fill="#ff9a00"/><rect x="774" y="302" width="3" height="3" fill="#ff9a00"/><rect x="786" y="302" width="3" height="3" fill="#ff9a00"/><rect x="774" y="305" width="3" height="3" fill="#ff9a00"/><rect x="786" y="305" width="3" height="3" fill="#ff9a00"/><rect x="777" y="308" width="9" height="3" fill="#ff9a00"/><rect x="795" y="290" width="9" height="3" fill="#ff9a00"/><rect x="792" y="293" width="3" height="3" fill="#ff9a00"/><rect x="804" y="293" width="3" height="3" fill="#ff9a00"/><rect x="792" y="296" width="3" height="3" fill="#ff9a00"/><rect x="804" y="296" width="3" height="3" fill="#ff9a00"/><rect x="792" y="299" width="15" height="3" fill="#ff9a00"/><rect x="792" y="302" width="3" height="3" fill="#ff9a00"/><rect x="804" y="302" width="3" height="3" fill="#ff9a00"/><rect x="792" y="305" width="3" height="3" fill="#ff9a00"/><rect x="804" y="305" width="3" height="3" fill="#ff9a00"/><rect x="792" y="308" width="3" height="3" fill="#ff9a00"/><rect x="804" y="308" width="3" height="3" fill="#ff9a00"/><rect x="810" y="290" width="12" height="3" fill="#ff9a00"/><rect x="810" y="293" width="3" height="3" fill="#ff9a00"/><rect x="822" y="293" width="3" height="3" fill="#ff9a00"/><rect x="810" y="296" width="3" height="3" fill="#ff9a00"/><rect x="822" y="296" width="3" height="3" fill="#ff9a00"/><rect x="810" y="299" width="12" height="3" fill="#ff9a00"/><rect x="810" y="302" width="3" height="3" fill="#ff9a00"/><rect x="816" y="302" width="3" height="3" fill="#ff9a00"/><rect x="810" y="305" width="3" height="3" fill="#ff9a00"/><rect x="819" y="305" width="3" height="3" fill="#ff9a00"/><rect x="810" y="308" width="3" height="3" fill="#ff9a00"/><rect x="822" y="308" width="3" height="3" fill="#ff9a00"/>
</svg>