<svg xmlns="http://www.w3.org/2000/svg" viewBox="0 0 300 72" width="300" height="72" role="img" aria-label="GITHUB">
<rect x="5" y="5" width="290" height="62" rx="10" fill="#000000" stroke="#ff9a00" stroke-width="7"/>
<g><rect x="100.5" y="24.0" width="9" height="3" fill="#ff9a00"/><rect x="97.5" y="27.0" width="3" height="3" fill="#ff9a00"/><rect x="109.5" y="27.0" width="3" height="3" fill="#ff9a00"/><rect x="97.5" y="30.0" width="3" height="3" fill="#ff9a00"/><rect x="97.5" y="33.0" width="3" height="3" fill="#ff9a00"/><rect x="103.5" y="33.0" width="9" height="3" fill="#ff9a00"/><rect x="97.5" y="36.0" width="3" height="3" fill="#ff9a00"/><rect x="109.5" y="36.0" width="3" height="3" fill="#ff9a00"/><rect x="97.5" y="39.0" width="3" height="3" fill="#ff9a00"/><rect x="109.5" y="39.0" width="3" height="3" fill="#ff9a00"/><rect x="100.5" y="42.0" width="9" height="3" fill="#ff9a00"/><rect x="115.5" y="24.0" width="15" height="3" fill="#ff9a00"/><rect x="121.5" y="27.0" width="3" height="3" fill="#ff9a00"/><rect x="121.5" y="30.0" width="3" height="3" fill="#ff9a00"/><rect x="121.5" y="33.0" width="3" height="3" fill="#ff9a00"/><rect x="121.5" y="36.0" width="3" height="3" fill="#ff9a00"/><rect x="121.5" y="39.0" width="3" height="3" fill="#ff9a00"/><rect x="115.5" y="42.0" width="15" height="3" fill="#ff9a00"/><rect x="133.5" y="24.0" width="15" height="3" fill="#ff9a00"/><rect x="139.5" y="27.0" width="3" height="3" fill="#ff9a00"/><rect x="139.5" y="30.0" width="3" height="3" fill="#ff9a00"/><rect x="139.5" y="33.0" width="3" height="3" fill="#ff9a00"/><rect x="139.5" y="36.0" width="3" height="3" fill="#ff9a00"/><rect x="139.5" y="39.0" width="3" height="3" fill="#ff9a00"/><rect x="139.5" y="42.0" width="3" height="3" fill="#ff9a00"/><rect x="151.5" y="24.0" width="3" height="3" fill="#ff9a00"/><rect x="163.5" y="24.0" width="3" height="3" fill="#ff9a00"/><rect x="151.5" y="27.0" width="3" height="3" fill="#ff9a00"/><rect x="163.5" y="27.0" width="3" height="3" fill="#ff9a00"/><rect x="151.5" y="30.0" width="3" height="3" fill="#ff9a00"/><rect x="163.5" y="30.0" width="3" height="3" fill="#ff9a00"/><rect x="151.5" y="33.0" width="15" height="3" fill="#ff9a00"/><rect x="151.5" y="36.0" width="3" height="3" fill="#ff9a00"/><rect x="163.5" y="36.0" width="3" height="3" fill="#ff9a00"/><rect x="151.5" y="39.0" width="3" height="3" fill="#ff9a00"/><rect x="163.5" y="39.0" width="3" height="3" fill="#ff9a00"/><rect x="151.5" y="42.0" width="3" height="3" fill="#ff9a00"/><rect x="163.5" y="42.0" width="3" height="3" fill="#ff9a00"/><rect x="169.5" y="24.0" width="3" height="3" fill="#ff9a00"/><rect x="181.5" y="24.0" width="3" height="3" fill="#ff9a00"/><rect x="169.5" y="27.0" width="3" height="3" fill="#ff9a00"/><rect x="181.5" y="27.0" width="3" height="3" fill="#ff9a00"/><rect x="169.5" y="30.0" width="3" height="3" fill="#ff9a00"/><rect x="181.5" y="30.0" width="3" height="3" fill="#ff9a00"/><rect x="169.5" y="33.0" width="3" height="3" fill="#ff9a00"/><rect x="181.5" y="33.0" width="3" height="3" fill="#ff9a00"/><rect x="169.5" y="36.0" width="3" height="3" fill="#ff9a00"/><rect x="181.5" y="36.0" width="3" height="3" fill="#ff9a00"/><rect x="169.5" y="39.0" width="3" height="3" fill="#ff9a00"/><rect x="181.5" y="39.0" width="3" height="3" fill="#ff9a00"/><rect x="172.5" y="42.0" width="9" height="3" fill="#ff9a00"/><rect x="187.5" y="24.0" width="12" height="3" fill="#ff9a00"/><rect x="187.5" y="27.0" width="3" height="3" fill="#ff9a00"/><rect x="199.5" y="27.0" width="3" height="3" fill="#ff9a00"/><rect x="187.5" y="30.0" width="3" height="3" fill="#ff9a00"/><rect x="199.5" y="30.0" width="3" height="3" fill="#ff9a00"/><rect x="187.5" y="33.0" width="12" height="3" fill="#ff9a00"/><rect x="187.5" y="36.0" width="3" height="3" fill="#ff9a00"/><rect x="199.5" y="36.0" width="3" height="3" fill="#ff9a00"/><rect x="187.5" y="39.0" width="3" height="3" fill="#ff9a00"/><rect x="199.5" y="39.0" width="3" height="3" fill="#ff9a00"/><rect x="187.5" y="42.0" width="12" height="3" fill="#ff9a00"/></g>
</svg>