<svg xmlns="http://www.w3.org/2000/svg" viewBox="0 0 300 72" width="300" height="72" role="img" aria-label="ENGLISH">
<rect x="5" y="5" width="290" height="62" rx="10" fill="#000000" stroke="#ff9a00" stroke-width="7"/>
<g><rect x="88.5" y="24.0" width="15" height="3" fill="#ff9a00"/><rect x="88.5" y="27.0" width="3" height="3" fill="#ff9a00"/><rect x="88.5" y="30.0" width="3" height="3" fill="#ff9a00"/><rect x="88.5" y="33.0" width="12" height="3" fill="#ff9a00"/><rect x="88.5" y="36.0" width="3" height="3" fill="#ff9a00"/><rect x="88.5" y="39.0" width="3" height="3" fill="#ff9a00"/><rect x="88.5" y="42.0" width="15" height="3" fill="#ff9a00"/><rect x="106.5" y="24.0" width="3" height="3" fill="#ff9a00"/><rect x="118.5" y="24.0" width="3" height="3" fill="#ff9a00"/><rect x="106.5" y="27.0" width="6" height="3" fill="#ff9a00"/><rect x="118.5" y="27.0" width="3" height="3" fill="#ff9a00"/><rect x="106.5" y="30.0" width="3" height="3" fill="#ff9a00"/><rect x="112.5" y="30.0" width="3" height="3" fill="#ff9a00"/><rect x="118.5" y="30.0" width="3" height="3" fill="#ff9a00"/><rect x="106.5" y="33.0" width="3" height="3" fill="#ff9a00"/><rect x="115.5" y="33.0" width="6" height="3" fill="#ff9a00"/><rect x="106.5" y="36.0" width="3" height="3" fill="#ff9a00"/><rect x="118.5" y="36.0" width="3" height="3" fill="#ff9a00"/><rect x="106.5" y="39.0" width="3" height="3" fill="#ff9a00"/><rect x="118.5" y="39.0" width="3" height="3" fill="#ff9a00"/><rect x="106.5" y="42.0" width="3" height="3" fill="#ff9a00"/><rect x="118.5" y="42.0" width="3" height="3" fill="#ff9a00"/><rect x="127.5" y="24.0" width="9" height="3" fill="#ff9a00"/><rect x="124.5" y="27.0" width="3" height="3" fill="#ff9a00"/><rect x="136.5" y="27.0" width="3" height="3" fill="#ff9a00"/><rect x="124.5" y="30.0" width="3" height="3" fill="#ff9a00"/><rect x="124.5" y="33.0" width="3" height="3" fill="#ff9a00"/><rect x="130.5" y="33.0" width="9" height="3" fill="#ff9a00"/><rect x="124.5" y="36.0" width="3" height="3" fill="#ff9a00"/><rect x="136.5" y="36.0" width="3" height="3" fill="#ff9a00"/><rect x="124.5" y="39.0" width="3" height="3" fill="#ff9a00"/><rect x="136.5" y="39.0" width="3" height="3" fill="#ff9a00"/><rect x="127.5" y="42.0" width="9" height="3" fill="#ff9a00"/><rect x="142.5" y="24.0" width="3" height="3" fill="#ff9a00"/><rect x="142.5" y="27.0" width="3" height="3" fill="#ff9a00"/><rect x="142.5" y="30.0" width="3" height="3" fill="#ff9a00"/><rect x="142.5" y="33.0" width="3" height="3" fill="#ff9a00"/><rect x="142.5" y="36.0" width="3" height="3" fill="#ff9a00"/><rect x="142.5" y="39.0" width="3" height="3" fill="#ff9a00"/><rect x="142.5" y="42.0" width="15" height="3" fill="#ff9a00"/><rect x="160.5" y="24.0" width="15" height="3" fill="#ff9a00"/><rect x="166.5" y="27.0" width="3" height="3" fill="#ff9a00"/><rect x="166.5" y="30.0" width="3" height="3" fill="#ff9a00"/><rect x="166.5" y="33.0" width="3" height="3" fill="#ff9a00"/><rect x="166.5" y="36.0" width="3" height="3" fill="#ff9a00"/><rect x="166.5" y="39.0" width="3" height="3" fill="#ff9a00"/><rect x="160.5" y="42.0" width="15" height="3" fill="#ff9a00"/><rect x="181.5" y="24.0" width="12" height="3" fill="#ff9a00"/><rect x="178.5" y="27.0" width="3" height="3" fill="#ff9a00"/><rect x="178.5" y="30.0" width="3" height="3" fill="#ff9a00"/><rect x="181.5" y="33.0" width="9" height="3" fill="#ff9a00"/><rect x="190.5" y="36.0" width="3" height="3" fill="#ff9a00"/><rect x="190.5" y="39.0" width="3" height="3" fill="#ff9a00"/><rect x="178.5" y="42.0" width="12" height="3" fill="#ff9a00"/><rect x="196.5" y="24.0" width="3" height="3" fill="#ff9a00"/><rect x="208.5" y="24.0" width="3" height="3" fill="#ff9a00"/><rect x="196.5" y="27.0" width="3" height="3" fill="#ff9a00"/><rect x="208.5" y="27.0" width="3" height="3" fill="#ff9a00"/><rect x="196.5" y="30.0" width="3" height="3" fill="#ff9a00"/><rect x="208.5" y="30.0" width="3" height="3" fill="#ff9a00"/><rect x="196.5" y="33.0" width="15" height="3" fill="#ff9a00"/><rect x="196.5" y="36.0" width="3" height="3" fill="#ff9a00"/><rect x="208.5" y="36.0" width="3" height="3" fill="#ff9a00"/><rect x="196.5" y="39.0" width="3" height="3" fill="#ff9a00"/><rect x="208.5" y="39.0" width="3" height="3" fill="#ff9a00"/><rect x="196.5" y="42.0" width="3" height="3" fill="#ff9a00"/><rect x="208.5" y="42.0" width="3" height="3" fill="#ff9a00"/></g>
</svg>