<svg xmlns="http://www.w3.org/2000/svg" viewBox="0 0 431 72" width="431" height="72" role="img" aria-label="MINDLOG-ALPHA-PROJECT">
<rect x="5" y="5" width="421" height="62" rx="10" fill="#000000" stroke="#8b949e" stroke-width="7"/>
<g><rect x="28.0" y="24.0" width="3" height="3" fill="#8b949e"/><rect x="40.0" y="24.0" width="3" height="3" fill="#8b949e"/><rect x="28.0" y="27.0" width="6" height="3" fill="#8b949e"/><rect x="37.0" y="27.0" width="6" height="3" fill="#8b949e"/><rect x="28.0" y="30.0" width="3" height="3" fill="#8b949e"/><rect x="34.0" y="30.0" width="3" height="3" fill="#8b949e"/><rect x="40.0" y="30.0" width="3" height="3" fill="#8b949e"/><rect x="28.0" y="33.0" width="3" height="3" fill="#8b949e"/><rect x="34.0" y="33.0" width="3" height="3" fill="#8b949e"/><rect x="40.0" y="33.0" width="3" height="3" fill="#8b949e"/><rect x="28.0" y="36.0" width="3" height="3" fill="#8b949e"/><rect x="40.0" y="36.0" width="3" height="3" fill="#8b949e"/><rect x="28.0" y="39.0" width="3" height="3" fill="#8b949e"/><rect x="40.0" y="39.0" width="3" height="3" fill="#8b949e"/><rect x="28.0" y="42.0" width="3" height="3" fill="#8b949e"/><rect x="40.0" y="42.0" width="3" height="3" fill="#8b949e"/><rect x="46.0" y="24.0" width="15" height="3" fill="#8b949e"/><rect x="52.0" y="27.0" width="3" height="3" fill="#8b949e"/><rect x="52.0" y="30.0" width="3" height="3" fill="#8b949e"/><rect x="52.0" y="33.0" width="3" height="3" fill="#8b949e"/><rect x="52.0" y="36.0" width="3" height="3" fill="#8b949e"/><rect x="52.0" y="39.0" width="3" height="3" fill="#8b949e"/><rect x="46.0" y="42.0" width="15" height="3" fill="#8b949e"/><rect x="64.0" y="24.0" width="3" height="3" fill="#8b949e"/><rect x="76.0" y="24.0" width="3" height="3" fill="#8b949e"/><rect x="64.0" y="27.0" width="6" height="3" fill="#8b949e"/><rect x="76.0" y="27.0" width="3" height="3" fill="#8b949e"/><rect x="64.0" y="30.0" width="3" height="3" fill="#8b949e"/><rect x="70.0" y="30.0" width="3" height="3" fill="#8b949e"/><rect x="76.0" y="30.0" width="3" height="3" fill="#8b949e"/><rect x="64.0" y="33.0" width="3" height="3" fill="#8b949e"/><rect x="73.0" y="33.0" width="6" height="3" fill="#8b949e"/><rect x="64.0" y="36.0" width="3" height="3" fill="#8b949e"/><rect x="76.0" y="36.0" width="3" height="3" fill="#8b949e"/><rect x="64.0" y="39.0" width="3" height="3" fill="#8b949e"/><rect x="76.0" y="39.0" width="3" height="3" fill="#8b949e"/><rect x="64.0" y="42.0" width="3" height="3" fill="#8b949e"/><rect x="76.0" y="42.0" width="3" height="3" fill="#8b949e"/><rect x="82.0" y="24.0" width="12" height="3" fill="#8b949e"/><rect x="82.0" y="27.0" width="3" height="3" fill="#8b949e"/><rect x="94.0" y="27.0" width="3" height="3" fill="#8b949e"/><rect x="82.0" y="30.0" width="3" height="3" fill="#8b949e"/><rect x="94.0" y="30.0" width="3" height="3" fill="#8b949e"/><rect x="82.0" y="33.0" width="3" height="3" fill="#8b949e"/><rect x="94.0" y="33.0" width="3" height="3" fill="#8b949e"/><rect x="82.0" y="36.0" width="3" height="3" fill="#8b949e"/><rect x="94.0" y="36.0" width="3" height="3" fill="#8b949e"/><rect x="82.0" y="39.0" width="3" height="3" fill="#8b949e"/><rect x="94.0" y="39.0" width="3" height="3" fill="#8b949e"/><rect x="82.0" y="42.0" width="12" height="3" fill="#8b949e"/><rect x="100.0" y="24.0" width="3" height="3" fill="#8b949e"/><rect x="100.0" y="27.0" width="3" height="3" fill="#8b949e"/><rect x="100.0" y="30.0" width="3" height="3" fill="#8b949e"/><rect x="100.0" y="33.0" width="3" height="3" fill="#8b949e"/><rect x="100.0" y="36.0" width="3" height="3" fill="#8b949e"/><rect x="100.0" y="39.0" width="3" height="3" fill="#8b949e"/><rect x="100.0" y="42.0" width="15" height="3" fill="#8b949e"/><rect x="121.0" y="24.0" width="9" height="3" fill="#8b949e"/><rect x="118.0" y="27.0" width="3" height="3" fill="#8b949e"/><rect x="130.0" y="27.0" width="3" height="3" fill="#8b949e"/><rect x="118.0" y="30.0" width="3" height="3" fill="#8b949e"/><rect x="130.0" y="30.0" width="3" height="3" fill="#8b949e"/><rect x="118.0" y="33.0" width="3" height="3" fill="#8b949e"/><rect x="130.0" y="33.0" width="3" height="3" fill="#8b949e"/><rect x="118.0" y="36.0" width="3" height="3" fill="#8b949e"/><rect x="130.0" y="36.0" width="3" height="3" fill="#8b949e"/><rect x="118.0" y="39.0" width="3" height="3" fill="#8b949e"/><rect x="130.0" y="39.0" width="3" height="3" fill="#8b949e"/><rect x="121.0" y="42.0" width="9" height="3" fill="#8b949e"/><rect x="139.0" y="24.0" width="9" height="3" fill="#8b949e"/><rect x="136.0" y="27.0" width="3" height="3" fill="#8b949e"/><rect x="148.0" y="27.0" width="3" height="3" fill="#8b949e"/><rect x="136.0" y="30.0" width="3" height="3" fill="#8b949e"/><rect x="136.0" y="33.0" width="3" height="3" fill="#8b949e"/><rect x="142.0" y="33.0" width="9" height="3" fill="#8b949e"/><rect x="136.0" y="36.0" width="3" height="3" fill="#8b949e"/><rect x="148.0" y="36.0" width="3" height="3" fill="#8b949e"/><rect x="136.0" y="39.0" width="3" height="3" fill="#8b949e"/><rect x="148.0" y="39.0" width="3" height="3" fill="#8b949e"/><rect x="139.0" y="42.0" width="9" height="3" fill="#8b949e"/><rect x="154.0" y="33.0" width="15" height="3" fill="#8b949e"/><rect x="175.0" y="24.0" width="9" height="3" fill="#8b949e"/><rect x="172.0" y="27.0" width="3" height="3" fill="#8b949e"/><rect x="184.0" y="27.0" width="3" height="3" fill="#8b949e"/><rect x="172.0" y="30.0" width="3" height="3" fill="#8b949e"/><rect x="184.0" y="30.0" width="3" height="3" fill="#8b949e"/><rect x="172.0" y="33.0" width="15" height="3" fill="#8b949e"/><rect x="172.0" y="36.0" width="3" height="3" fill="#8b949e"/><rect x="184.0" y="36.0" width="3" height="3" fill="#8b949e"/><rect x="172.0" y="39.0" width="3" height="3" fill="#8b949e"/><rect x="184.0" y="39.0" width="3" height="3" fill="#8b949e"/><rect x="172.0" y="42.0" width="3" height="3" fill="#8b949e"/><rect x="184.0" y="42.0" width="3" height="3" fill="#8b949e"/><rect x="190.0" y="24.0" width="3" height="3" fill="#8b949e"/><rect x="190.0" y="27.0" width="3" height="3" fill="#8b949e"/><rect x="190.0" y="30.0" width="3" height="3" fill="#8b949e"/><rect x="190.0" y="33.0" width="3" height="3" fill="#8b949e"/><rect x="190.0" y="36.0" width="3" height="3" fill="#8b949e"/><rect x="190.0" y="39.0" width="3" height="3" fill="#8b949e"/><rect x="190.0" y="42.0" width="15" height="3" fill="#8b949e"/><rect x="208.0" y="24.0" width="12" height="3" fill="#8b949e"/><rect x="208.0" y="27.0" width="3" height="3" fill="#8b949e"/><rect x="220.0" y="27.0" width="3" height="3" fill="#8b949e"/><rect x="208.0" y="30.0" width="3" height="3" fill="#8b949e"/><rect x="220.0" y="30.0" width="3" height="3" fill="#8b949e"/><rect x="208.0" y="33.0" width="12" height="3" fill="#8b949e"/><rect x="208.0" y="36.0" width="3" height="3" fill="#8b949e"/><rect x="208.0" y="39.0" width="3" height="3" fill="#8b949e"/><rect x="208.0" y="42.0" width="3" height="3" fill="#8b949e"/><rect x="226.0" y="24.0" width="3" height="3" fill="#8b949e"/><rect x="238.0" y="24.0" width="3" height="3" fill="#8b949e"/><rect x="226.0" y="27.0" width="3" height="3" fill="#8b949e"/><rect x="238.0" y="27.0" width="3" height="3" fill="#8b949e"/><rect x="226.0" y="30.0" width="3" height="3" fill="#8b949e"/><rect x="238.0" y="30.0" width="3" height="3" fill="#8b949e"/><rect x="226.0" y="33.0" width="15" height="3" fill="#8b949e"/><rect x="226.0" y="36.0" width="3" height="3" fill="#8b949e"/><rect x="238.0" y="36.0" width="3" height="3" fill="#8b949e"/><rect x="226.0" y="39.0" width="3" height="3" fill="#8b949e"/><rect x="238.0" y="39.0" width="3" height="3" fill="#8b949e"/><rect x="226.0" y="42.0" width="3" height="3" fill="#8b949e"/><rect x="238.0" y="42.0" width="3" height="3" fill="#8b949e"/><rect x="247.0" y="24.0" width="9" height="3" fill="#8b949e"/><rect x="244.0" y="27.0" width="3" height="3" fill="#8b949e"/><rect x="256.0" y="27.0" width="3" height="3" fill="#8b949e"/><rect x="244.0" y="30.0" width="3" height="3" fill="#8b949e"/><rect x="256.0" y="30.0" width="3" height="3" fill="#8b949e"/><rect x="244.0" y="33.0" width="15" height="3" fill="#8b949e"/><rect x="244.0" y="36.0" width="3" height="3" fill="#8b949e"/><rect x="256.0" y="36.0" width="3" height="3" fill="#8b949e"/><rect x="244.0" y="39.0" width="3" height="3" fill="#8b949e"/><rect x="256.0" y="39.0" width="3" height="3" fill="#8b949e"/><rect x="244.0" y="42.0" width="3" height="3" fill="#8b949e"/><rect x="256.0" y="42.0" width="3" height="3" fill="#8b949e"/><rect x="262.0" y="33.0" width="15" height="3" fill="#8b949e"/><rect x="280.0" y="24.0" width="12" height="3" fill="#8b949e"/><rect x="280.0" y="27.0" width="3" height="3" fill="#8b949e"/><rect x="292.0" y="27.0" width="3" height="3" fill="#8b949e"/><rect x="280.0" y="30.0" width="3" height="3" fill="#8b949e"/><rect x="292.0" y="30.0" width="3" height="3" fill="#8b949e"/><rect x="280.0" y="33.0" width="12" height="3" fill="#8b949e"/><rect x="280.0" y="36.0" width="3" height="3" fill="#8b949e"/><rect x="280.0" y="39.0" width="3" height="3" fill="#8b949e"/><rect x="280.0" y="42.0" width="3" height="3" fill="#8b949e"/><rect x="298.0" y="24.0" width="12" height="3" fill="#8b949e"/><rect x="298.0" y="27.0" width="3" height="3" fill="#8b949e"/><rect x="310.0" y="27.0" width="3" height="3" fill="#8b949e"/><rect x="298.0" y="30.0" width="3" height="3" fill="#8b949e"/><rect x="310.0" y="30.0" width="3" height="3" fill="#8b949e"/><rect x="298.0" y="33.0" width="12" height="3" fill="#8b949e"/><rect x="298.0" y="36.0" width="3" height="3" fill="#8b949e"/><rect x="304.0" y="36.0" width="3" height="3" fill="#8b949e"/><rect x="298.0" y="39.0" width="3" height="3" fill="#8b949e"/><rect x="307.0" y="39.0" width="3" height="3" fill="#8b949e"/><rect x="298.0" y="42.0" width="3" height="3" fill="#8b949e"/><rect x="310.0" y="42.0" width="3" height="3" fill="#8b949e"/><rect x="319.0" y="24.0" width="9" height="3" fill="#8b949e"/><rect x="316.0" y="27.0" width="3" height="3" fill="#8b949e"/><rect x="328.0" y="27.0" width="3" height="3" fill="#8b949e"/><rect x="316.0" y="30.0" width="3" height="3" fill="#8b949e"/><rect x="328.0" y="30.0" width="3" height="3" fill="#8b949e"/><rect x="316.0" y="33.0" width="3" height="3" fill="#8b949e"/><rect x="328.0" y="33.0" width="3" height="3" fill="#8b949e"/><rect x="316.0" y="36.0" width="3" height="3" fill="#8b949e"/><rect x="328.0" y="36.0" width="3" height="3" fill="#8b949e"/><rect x="316.0" y="39.0" width="3" height="3" fill="#8b949e"/><rect x="328.0" y="39.0" width="3" height="3" fill="#8b949e"/><rect x="319.0" y="42.0" width="9" height="3" fill="#8b949e"/><rect x="340.0" y="24.0" width="9" height="3" fill="#8b949e"/><rect x="343.0" y="27.0" width="3" height="3" fill="#8b949e"/><rect x="343.0" y="30.0" width="3" height="3" fill="#8b949e"/><rect x="343.0" y="33.0" width="3" height="3" fill="#8b949e"/><rect x="343.0" y="36.0" width="3" height="3" fill="#8b949e"/><rect x="334.0" y="39.0" width="3" height="3" fill="#8b949e"/><rect x="343.0" y="39.0" width="3" height="3" fill="#8b949e"/><rect x="337.0" y="42.0" width="6" height="3" fill="#8b949e"/><rect x="352.0" y="24.0" width="15" height="3" fill="#8b949e"/><rect x="352.0" y="27.0" width="3" height="3" fill="#8b949e"/><rect x="352.0" y="30.0" width="3" height="3" fill="#8b949e"/><rect x="352.0" y="33.0" width="12" height="3" fill="#8b949e"/><rect x="352.0" y="36.0" width="3" height="3" fill="#8b949e"/><rect x="352.0" y="39.0" width="3" height="3" fill="#8b949e"/><rect x="352.0" y="42.0" width="15" height="3" fill="#8b949e"/><rect x="373.0" y="24.0" width="9" height="3" fill="#8b949e"/><rect x="370.0" y="27.0" width="3" height="3" fill="#8b949e"/><rect x="382.0" y="27.0" width="3" height="3" fill="#8b949e"/><rect x="370.0" y="30.0" width="3" height="3" fill="#8b949e"/><rect x="370.0" y="33.0" width="3" height="3" fill="#8b949e"/><rect x="370.0" y="36.0" width="3" height="3" fill="#8b949e"/><rect x="370.0" y="39.0" width="3" height="3" fill="#8b949e"/><rect x="382.0" y="39.0" width="3" height="3" fill="#8b949e"/><rect x="373.0" y="42.0" width="9" height="3" fill="#8b949e"/><rect x="388.0" y="24.0" width="15" height="3" fill="#8b949e"/><rect x="394.0" y="27.0" width="3" height="3" fill="#8b949e"/><rect x="394.0" y="30.0" width="3" height="3" fill="#8b949e"/><rect x="394.0" y="33.0" width="3" height="3" fill="#8b949e"/><rect x="394.0" y="36.0" width="3" height="3" fill="#8b949e"/><rect x="394.0" y="39.0" width="3" height="3" fill="#8b949e"/><rect x="394.0" y="42.0" width="3" height="3" fill="#8b949e"/></g>
</svg>