<svg xmlns="http://www.w3.org/2000/svg" viewBox="0 0 520 58" width="520" height="58" role="img" aria-label="OTHER SAVES">
<rect x="6" y="17.0" width="4" height="4" fill="#ff9a00"/><rect x="14" y="17.0" width="4" height="4" fill="#ff9a00"/><rect x="22" y="17.0" width="4" height="4" fill="#ff9a00"/><rect x="10" y="21.0" width="12" height="4" fill="#ff9a00"/><rect x="6" y="25.0" width="20" height="4" fill="#ff9a00"/><rect x="10" y="29.0" width="12" height="4" fill="#ff9a00"/><rect x="6" y="33.0" width="4" height="4" fill="#ff9a00"/><rect x="14" y="33.0" width="4" height="4" fill="#ff9a00"/><rect x="22" y="33.0" width="4" height="4" fill="#ff9a00"/><rect x="58" y="13.0" width="12" height="4" fill="#ff9a00"/><rect x="54" y="17.0" width="4" height="4" fill="#ff9a00"/><rect x="70" y="17.0" width="4" height="4" fill="#ff9a00"/><rect x="54" y="21.0" width="4" height="4" fill="#ff9a00"/><rect x="70" y="21.0" width="4" height="4" fill="#ff9a00"/><rect x="54" y="25.0" width="4" height="4" fill="#ff9a00"/><rect x="70" y="25.0" width="4" height="4" fill="#ff9a00"/><rect x="54" y="29.0" width="4" height="4" fill="#ff9a00"/><rect x="70" y="29.0" width="4" height="4" fill="#ff9a00"/><rect x="54" y="33.0" width="4" height="4" fill="#ff9a00"/><rect x="70" y="33.0" width="4" height="4" fill="#ff9a00"/><rect x="58" y="37.0" width="12" height="4" fill="#ff9a00"/><rect x="78" y="13.0" width="20" height="4" fill="#ff9a00"/><rect x="86" y="17.0" width="4" height="4" fill="#ff9a00"/><rect x="86" y="21.0" width="4" height="4" fill="#ff9a00"/><rect x="86" y="25.0" width="4" height="4" fill="#ff9a00"/><rect x="86" y="29.0" width="4" height="4" fill="#ff9a00"/><rect x="86" y="33.0" width="4" height="4" fill="#ff9a00"/><rect x="86" y="37.0" width="4" height="4" fill="#ff9a00"/><rect x="102" y="13.0" width="4" height="4" fill="#ff9a00"/><rect x="118" y="13.0" width="4" height="4" fill="#ff9a00"/><rect x="102" y="17.0" width="4" height="4" fill="#ff9a00"/><rect x="118" y="17.0" width="4" height="4" fill="#ff9a00"/><rect x="102" y="21.0" width="4" height="4" fill="#ff9a00"/><rect x="118" y="21.0" width="4" height="4" fill="#ff9a00"/><rect x="102" y="25.0" width="20" height="4" fill="#ff9a00"/><rect x="102" y="29.0" width="4" height="4" fill="#ff9a00"/><rect x="118" y="29.0" width="4" height="4" fill="#ff9a00"/><rect x="102" y="33.0" width="4" height="4" fill="#ff9a00"/><rect x="118" y="33.0" width="4" height="4" fill="#ff9a00"/><rect x="102" y="37.0" width="4" height="4" fill="#ff9a00"/><rect x="118" y="37.0" width="4" height="4" fill="#ff9a00"/><rect x="126" y="13.0" width="20" height="4" fill="#ff9a00"/><rect x="126" y="17.0" width="4" height="4" fill="#ff9a00"/><rect x="126" y="21.0" width="4" height="4" fill="#ff9a00"/><rect x="126" y="25.0" width="16" height="4" fill="#ff9a00"/><rect x="126" y="29.0" width="4" height="4" fill="#ff9a00"/><rect x="126" y="33.0" width="4" height="4" fill="#ff9a00"/><rect x="126" y="37.0" width="20" height="4" fill="#ff9a00"/><rect x="150" y="13.0" width="16" height="4" fill="#ff9a00"/><rect x="150" y="17.0" width="4" height="4" fill="#ff9a00"/><rect x="166" y="17.0" width="4" height="4" fill="#ff9a00"/><rect x="150" y="21.0" width="4" height="4" fill="#ff9a00"/><rect x="166" y="21.0" width="4" height="4" fill="#ff9a00"/><rect x="150" y="25.0" width="16" height="4" fill="#ff9a00"/><rect x="150" y="29.0" width="4" height="4" fill="#ff9a00"/><rect x="158" y="29.0" width="4" height="4" fill="#ff9a00"/><rect x="150" y="33.0" width="4" height="4" fill="#ff9a00"/><rect x="162" y="33.0" width="4" height="4" fill="#ff9a00"/><rect x="150" y="37.0" width="4" height="4" fill="#ff9a00"/><rect x="166" y="37.0" width="4" height="4" fill="#ff9a00"/><rect x="202" y="13.0" width="16" height="4" fill="#ff9a00"/><rect x="198" y="17.0" width="4" height="4" fill="#ff9a00"/><rect x="198" y="21.0" width="4" height="4" fill="#ff9a00"/><rect x="202" y="25.0" width="12" height="4" fill="#ff9a00"/><rect x="214" y="29.0" width="4" height="4" fill="#ff9a00"/><rect x="214" y="33.0" width="4" height="4" fill="#ff9a00"/><rect x="198" y="37.0" width="16" height="4" fill="#ff9a00"/><rect x="226" y="13.0" width="12" height="4" fill="#ff9a00"/><rect x="222" y="17.0" width="4" height="4" fill="#ff9a00"/><rect x="238" y="17.0" width="4" height="4" fill="#ff9a00"/><rect x="222" y="21.0" width="4" height="4" fill="#ff9a00"/><rect x="238" y="21.0" width="4" height="4" fill="#ff9a00"/><rect x="222" y="25.0" width="20" height="4" fill="#ff9a00"/><rect x="222" y="29.0" width="4" height="4" fill="#ff9a00"/><rect x="238" y="29.0" width="4" height="4" fill="#ff9a00"/><rect x="222" y="33.0" width="4" height="4" fill="#ff9a00"/><rect x="238" y="33.0" width="4" height="4" fill="#ff9a00"/><rect x="222" y="37.0" width="4" height="4" fill="#ff9a00"/><rect x="238" y="37.0" width="4" height="4" fill="#ff9a00"/><rect x="246" y="13.0" width="4" height="4" fill="#ff9a00"/><rect x="262" y="13.0" width="4" height="4" fill="#ff9a00"/><rect x="246" y="17.0" width="4" height="4" fill="#ff9a00"/><rect x="262" y="17.0" width="4" height="4" fill="#ff9a00"/><rect x="246" y="21.0" width="4" height="4" fill="#ff9a00"/><rect x="262" y="21.0" width="4" height="4" fill="#ff9a00"/><rect x="246" y="25.0" width="4" height="4" fill="#ff9a00"/><rect x="262" y="25.0" width="4" height="4" fill="#ff9a00"/><rect x="246" y="29.0" width="4" height="4" fill="#ff9a00"/><rect x="262" y="29.0" width="4" height="4" fill="#ff9a00"/><rect x="250" y="33.0" width="4" height="4" fill="#ff9a00"/><rect x="258" y="33.0" width="4" height="4" fill="#ff9a00"/><rect x="254" y="37.0" width="4" height="4" fill="#ff9a00"/><rect x="270" y="13.0" width="20" height="4" fill="#ff9a00"/><rect x="270" y="17.0" width="4" height="4" fill="#ff9a00"/><rect x="270" y="21.0" width="4" height="4" fill="#ff9a00"/><rect x="270" y="25.0" width="16" height="4" fill="#ff9a00"/><rect x="270" y="29.0" width="4" height="4" fill="#ff9a00"/><rect x="270" y="33.0" width="4" height="4" fill="#ff9a00"/><rect x="270" y="37.0" width="20" height="4" fill="#ff9a00"/><rect x="298" y="13.0" width="16" height="4" fill="#ff9a00"/><rect x="294" y="17.0" width="4" height="4" fill="#ff9a00"/><rect x="294" y="21.0" width="4" height="4" fill="#ff9a00"/><rect x="298" y="25.0" width="12" height="4" fill="#ff9a00"/><rect x="310" y="29.0" width="4" height="4" fill="#ff9a00"/><rect x="310" y="33.0" width="4" height="4" fill="#ff9a00"/><rect x="294" y="37.0" width="16" height="4" fill="#ff9a00"/>
</svg>